<svg width="26" height="26" viewBox="0 0 26 26" fill="none" xmlns="http://www.w3.org/2000/svg">
<path fill-rule="evenodd" clip-rule="evenodd" d="M14.7708 22.455V13.8303H17.7211L18.1637 10.4681H14.7708V8.32183C14.7708 7.3487 15.0452 6.68553 16.4695 6.68553L18.2832 6.6848V3.67753C17.9695 3.63756 16.8929 3.5459 15.6398 3.5459C13.0231 3.5459 11.2317 5.11248 11.2317 7.98884V10.4681H8.27246V13.8303H11.2317V22.455H14.7708Z" fill="#5B40FF"/>
<mask id="mask0_2002_45" style="mask-type:luminance" maskUnits="userSpaceOnUse" x="8" y="3" width="11" height="20">
<path fill-rule="evenodd" clip-rule="evenodd" d="M14.7708 22.455V13.8303H17.7211L18.1637 10.4681H14.7708V8.32183C14.7708 7.3487 15.0452 6.68553 16.4695 6.68553L18.2832 6.6848V3.67753C17.9695 3.63756 16.8929 3.5459 15.6398 3.5459C13.0231 3.5459 11.2317 5.11248 11.2317 7.98884V10.4681H8.27246V13.8303H11.2317V22.455H14.7708Z" fill="white"/>
</mask>
<g mask="url(#mask0_2002_45)">
</g>
</svg>
