<svg width="26" height="26" viewBox="0 0 26 26" fill="none" xmlns="http://www.w3.org/2000/svg">
<path fill-rule="evenodd" clip-rule="evenodd" d="M23.6368 6.6584C22.8973 6.98606 22.1039 7.20827 21.2702 7.30748C22.1215 6.79776 22.773 5.98926 23.0818 5.02884C22.2834 5.50087 21.4021 5.84364 20.463 6.02944C19.711 5.22722 18.6413 4.72754 17.4549 4.72754C15.1788 4.72754 13.3333 6.57305 13.3333 8.84792C13.3333 9.17055 13.3697 9.48567 13.44 9.787C10.0152 9.61498 6.97826 7.97413 4.9457 5.48078C4.5904 6.08844 4.38827 6.79648 4.38827 7.55228C4.38827 8.98225 5.11644 10.244 6.22124 10.9821C5.5458 10.9596 4.91054 10.7738 4.35439 10.4649V10.5164C4.35439 12.5125 5.77556 14.1785 7.65997 14.5577C7.31472 14.6506 6.95065 14.7021 6.57401 14.7021C6.30787 14.7021 6.0505 14.6757 5.79815 14.6255C6.32291 16.2638 7.84453 17.4552 9.64736 17.4879C8.23749 18.5927 6.45977 19.2493 4.52891 19.2493C4.19623 19.2493 3.86853 19.2292 3.5459 19.1928C5.37007 20.3641 7.53572 21.0471 9.86331 21.0471C17.4449 21.0471 21.5892 14.7673 21.5892 9.32123L21.5754 8.78768C22.3851 8.21013 23.0856 7.48449 23.6368 6.6584Z" fill="#5B40FF"/>
<mask id="mask0_2002_41" style="mask-type:luminance" maskUnits="userSpaceOnUse" x="3" y="4" width="21" height="18">
<path fill-rule="evenodd" clip-rule="evenodd" d="M23.6368 6.6584C22.8973 6.98606 22.1039 7.20827 21.2702 7.30748C22.1215 6.79776 22.773 5.98926 23.0818 5.02884C22.2834 5.50087 21.4021 5.84364 20.463 6.02944C19.711 5.22722 18.6413 4.72754 17.4549 4.72754C15.1788 4.72754 13.3333 6.57305 13.3333 8.84792C13.3333 9.17055 13.3697 9.48567 13.44 9.787C10.0152 9.61498 6.97826 7.97413 4.9457 5.48078C4.5904 6.08844 4.38827 6.79648 4.38827 7.55228C4.38827 8.98225 5.11644 10.244 6.22124 10.9821C5.5458 10.9596 4.91054 10.7738 4.35439 10.4649V10.5164C4.35439 12.5125 5.77556 14.1785 7.65997 14.5577C7.31472 14.6506 6.95065 14.7021 6.57401 14.7021C6.30787 14.7021 6.0505 14.6757 5.79815 14.6255C6.32291 16.2638 7.84453 17.4552 9.64736 17.4879C8.23749 18.5927 6.45977 19.2493 4.52891 19.2493C4.19623 19.2493 3.86853 19.2292 3.5459 19.1928C5.37007 20.3641 7.53572 21.0471 9.86331 21.0471C17.4449 21.0471 21.5892 14.7673 21.5892 9.32123L21.5754 8.78768C22.3851 8.21013 23.0856 7.48449 23.6368 6.6584Z" fill="white"/>
</mask>
<g mask="url(#mask0_2002_41)">
</g>
</svg>
